# xmcd
#
# Track frame offsets:
#	150
#	13913
#	24429
#	39696
#	49975
#	61726
#	75403
#	87661
#	100134
#	110450
#	122051
#	132346
#	141678
#	152303
#	165020
#	178401
#	190021
#	201060
#	210356
#	221028
#
# Disc length: 3132 seconds
# Revision: 0
# Processed by: cddbd v1.5.2PL0 Copyright (c) Steve Scherf et al.
# Submitted via: dBpowerAMP V12.0
#
DISCID=140c3a14
DTITLE=Various Artist - The best Of country CD1
DYEAR=2015
DGENRE=Country
TTITLE0=Various Artist - Funny how time slips away 
TTITLE1=Various Artist - It's sure gonna hurt
TTITLE2=Jim Reeves  - The blizzard
TTITLE3=Loretta Lynn  - I'm a honky tonk girl
TTITLE4=Bill Monroe and His Blue Grass Boys - Ras hide
TTITLE5=Jimmy Dean  - Big bad John
TTITLE6=Hank Thompson - The wild side of life
TTITLE7=Webb Pierce - Back street affair
TTITLE8=Johnny Cash  - Busted
TTITLE9=George Jones - She thinks I still care
TTITLE10=Kitty Wells - Make your mind up
TTITLE11=Glen Campbell  - Truck driving manl 
TTITLE12=Jimmie Rodgers  - Kisses sweeter than wine
TTITLE13=Johnny Horton  - North to Alaska
TTITLE14=Bobby Helms  - My special angel 
TTITLE15=Patsy Cline  - Walkin' after midnight
TTITLE16=Hank Williams - I'll never get out of this world alive
TTITLE17=Lefty Frizzell  - Just can't live that fast any more
TTITLE18=Johnny Tillotson - Send me the pillow you dream on
TTITLE19=Hank Snow - I don't hurt anymore
EXTD=
EXTT0=
EXTT1=
EXTT2=
EXTT3=
EXTT4=
EXTT5=
EXTT6=
EXTT7=
EXTT8=
EXTT9=
EXTT10=
EXTT11=
EXTT12=
EXTT13=
EXTT14=
EXTT15=
EXTT16=
EXTT17=
EXTT18=
EXTT19=
PLAYORDER=
